<?xml version="1.0" standalone="no"?>
<!DOCTYPE svg PUBLIC "-//W3C//DTD SVG 20010904//EN"
 "http://www.w3.org/TR/2001/REC-SVG-20010904/DTD/svg10.dtd">
<svg version="1.0" xmlns="http://www.w3.org/2000/svg"
 width="500.000000pt" height="500.000000pt" viewBox="0 0 500.000000 500.000000"
 preserveAspectRatio="xMidYMid meet">

<g transform="translate(0.000000,500.000000) scale(0.100000,-0.100000)"
fill="#000000" stroke="none">
<path d="M2350 4324 c-14 -2 -65 -9 -115 -15 -369 -44 -759 -240 -1037 -523
-276 -280 -448 -623 -510 -1016 -19 -124 -17 -440 5 -565 88 -515 376 -958
808 -1238 168 -109 343 -187 534 -237 169 -44 253 -54 465 -54 108 0 231 6
275 13 511 80 962 369 1252 802 143 212 237 457 285 739 17 100 17 432 0 540
-61 386 -229 724 -495 999 -298 307 -670 494 -1087 546 -112 13 -314 18 -380
9z m178 -200 c12 -8 22 -22 22 -31 0 -21 -29 -53 -48 -53 -22 0 -52 30 -52 51
0 16 34 49 50 49 3 0 16 -7 28 -16z m-1006 -806 c26 -59 116 -271 418 -985 69
-161 127 -289 131 -285 6 5 348 817 378 896 7 16 9 16 25 -9 l18 -27 -112
-272 c-182 -441 -377 -909 -391 -939 -10 -23 -18 -27 -42 -25 -30 3 -33 10
-354 788 -178 432 -327 788 -331 792 -4 4 -6 -336 -5 -755 l3 -762 22 -7 c13
-3 47 -6 76 -7 49 -1 52 -3 52 -26 l0 -25 -180 0 -180 0 0 25 c0 24 3 25 58
26 103 1 92 -94 93 809 l0 795 -75 3 c-73 3 -76 4 -76 27 l0 25 223 0 223 0
26 -62z m1248 37 c0 -22 -5 -25 -32 -25 -18 0 -49 -3 -70 -6 l-36 -6 246 -369
c136 -202 249 -368 252 -368 3 0 25 30 50 67 25 37 139 203 253 369 114 167
207 305 207 308 0 3 -34 5 -75 5 -73 0 -75 1 -75 25 l0 25 185 0 185 0 0 -25
c0 -24 -2 -25 -77 -25 l-78 -1 -160 -234 c-88 -129 -210 -309 -272 -399 l-112
-164 230 -344 c127 -188 248 -369 268 -400 30 -48 41 -57 66 -58 17 0 54 -3
83 -6 46 -6 52 -9 52 -30 l0 -24 -310 0 -310 0 0 24 c0 22 5 24 70 31 39 4 70
11 68 15 -6 16 -483 730 -488 730 -3 0 -118 -166 -256 -368 -200 -293 -248
-368 -235 -374 9 -4 42 -7 74 -7 54 -1 57 -2 57 -26 l0 -25 -185 0 -185 0 0
24 c0 22 4 24 76 28 46 3 80 11 89 19 7 8 106 151 220 319 115 168 232 340
262 383 l54 78 -267 397 c-147 218 -268 398 -269 400 -1 1 -39 5 -84 9 -77 6
-81 7 -81 29 l0 24 305 0 305 0 0 -25z m298 3 c-2 -14 -11 -24 -23 -25 -11 -1
-46 -5 -77 -8 l-57 -6 -3 -122 -3 -121 -52 76 c-29 42 -53 81 -53 87 0 6 14
11 30 11 32 0 36 11 33 98 l-1 32 105 0 c103 0 104 0 101 -22z m-368 -763 l51
-75 -47 -68 c-26 -37 -51 -71 -56 -76 -4 -6 -8 58 -8 142 0 84 2 152 5 152 2
0 27 -34 55 -75z m204 -301 c3 -9 6 -139 6 -289 l0 -273 80 -7 c76 -7 80 -8
80 -31 l0 -24 -225 0 -225 0 0 30 c0 17 5 30 10 30 6 0 10 43 10 108 l0 109
81 119 c44 65 100 147 122 181 23 35 45 63 48 63 4 0 10 -7 13 -16z m-370
-1330 c32 -32 13 -74 -34 -74 -30 0 -50 16 -50 41 0 23 27 49 50 49 10 0 26
-7 34 -16z"/>
</g>
</svg>
