<?xml version="1.0" standalone="no"?>
<!DOCTYPE svg PUBLIC "-//W3C//DTD SVG 20010904//EN"
 "http://www.w3.org/TR/2001/REC-SVG-20010904/DTD/svg10.dtd">
<svg version="1.0" xmlns="http://www.w3.org/2000/svg"
 width="512.000000pt" height="512.000000pt" viewBox="0 0 512.000000 512.000000"
 preserveAspectRatio="xMidYMid meet">

<g transform="translate(0.000000,512.000000) scale(0.100000,-0.100000)"
fill="#000000" stroke="none">
<path d="M2445 4073 c-102 -8 -250 -38 -350 -70 -816 -260 -1260 -1135 -990
-1949 163 -490 568 -868 1072 -999 52 -14 106 -25 119 -25 l24 0 0 535 0 535
-190 0 -190 0 0 220 0 220 190 0 190 0 0 209 c0 243 13 329 65 439 71 149 208
247 395 280 80 14 111 14 248 4 86 -7 169 -15 185 -19 l27 -5 0 -195 0 -194
-137 2 c-158 3 -195 -9 -252 -78 -45 -54 -51 -87 -51 -275 l0 -168 210 0 210
0 0 -22 c0 -13 -14 -108 -30 -213 -16 -104 -30 -196 -30 -202 0 -10 -43 -13
-180 -13 l-180 0 0 -530 0 -530 23 0 c74 0 284 69 422 137 685 344 1011 1133
769 1861 -128 388 -403 704 -772 887 -248 123 -535 180 -797 158z"/>
</g>
</svg>
