<?xml version="1.0" standalone="no"?>
<!DOCTYPE svg PUBLIC "-//W3C//DTD SVG 20010904//EN"
 "http://www.w3.org/TR/2001/REC-SVG-20010904/DTD/svg10.dtd">
<svg version="1.0" xmlns="http://www.w3.org/2000/svg"
 width="512.000000pt" height="512.000000pt" viewBox="0 0 512.000000 512.000000"
 preserveAspectRatio="xMidYMid meet">

<g transform="translate(0.000000,512.000000) scale(0.100000,-0.100000)"
fill="#000000" stroke="none">
<path d="M0 4613 l0 -510 52 -7 c29 -3 88 -6 131 -6 107 0 345 -26 512 -55
1407 -248 2591 -1217 3118 -2552 156 -393 255 -843 272 -1229 3 -71 8 -157 11
-191 l6 -63 509 0 509 0 0 83 c0 127 -18 365 -41 547 -71 570 -229 1093 -486
1612 -262 531 -563 950 -988 1373 -273 273 -495 455 -805 660 -787 520 -1671
804 -2622 841 l-178 7 0 -510z"/>
<path d="M0 2896 l0 -493 118 -7 c489 -28 924 -188 1322 -484 129 -96 334
-296 430 -417 320 -406 494 -863 526 -1382 l7 -113 495 0 495 0 -6 168 c-24
647 -266 1318 -672 1857 -478 636 -1159 1088 -1924 1274 -220 54 -500 91 -687
91 l-104 0 0 -494z"/>
<path d="M510 1377 c-293 -90 -487 -332 -507 -630 -8 -128 14 -234 74 -357 38
-79 60 -109 132 -181 71 -71 102 -94 181 -133 356 -175 773 -30 946 328 51
105 67 196 61 334 -3 91 -10 133 -30 190 -72 202 -236 368 -434 437 -67 24
-98 28 -213 31 -119 4 -144 1 -210 -19z"/>
</g>
</svg>
