<?xml version="1.0" standalone="no"?>
<!DOCTYPE svg PUBLIC "-//W3C//DTD SVG 20010904//EN"
 "http://www.w3.org/TR/2001/REC-SVG-20010904/DTD/svg10.dtd">
<svg version="1.0" xmlns="http://www.w3.org/2000/svg"
 width="512.000000pt" height="512.000000pt" viewBox="0 0 512.000000 512.000000"
 preserveAspectRatio="xMidYMid meet">

<g transform="translate(0.000000,512.000000) scale(0.100000,-0.100000)"
fill="#000000" stroke="none">
<path d="M1995 4089 c-352 -13 -537 -79 -711 -253 -119 -120 -185 -244 -225
-429 -52 -237 -52 -1457 0 -1694 41 -188 106 -310 231 -434 73 -73 102 -94
191 -138 217 -107 291 -115 1079 -115 789 0 862 8 1080 115 91 45 117 64 196
143 79 79 98 105 143 196 107 218 115 291 115 1080 0 786 -8 863 -114 1076
-109 223 -302 366 -573 425 -159 35 -876 49 -1412 28z m1180 -279 c232 -16
356 -61 465 -170 110 -110 154 -233 170 -470 12 -189 12 -1045 0 -1225 -16
-232 -61 -356 -170 -465 -110 -110 -233 -154 -470 -170 -189 -12 -1045 -12
-1225 0 -232 16 -356 61 -465 170 -114 114 -155 232 -171 495 -16 253 -6 1257
14 1350 49 229 156 365 340 434 87 32 140 42 267 50 171 12 1084 12 1245 1z"/>
<path d="M3289 3539 c-100 -58 -120 -198 -41 -283 59 -62 158 -75 229 -29 113
73 112 242 -3 309 -53 31 -133 33 -185 3z"/>
<path d="M2424 3335 c-97 -17 -136 -31 -225 -77 -153 -78 -267 -195 -344 -353
-76 -155 -99 -311 -71 -474 80 -455 514 -742 966 -636 85 20 230 92 302 149
123 98 238 277 273 426 52 222 11 444 -116 634 -168 252 -485 386 -785 331z
m259 -280 c229 -60 387 -262 387 -495 0 -280 -230 -510 -510 -510 -280 0 -510
230 -510 510 0 230 158 434 381 494 71 19 181 20 252 1z"/>
</g>
</svg>
