<?xml version="1.0" standalone="no"?>
<!DOCTYPE svg PUBLIC "-//W3C//DTD SVG 20010904//EN"
 "http://www.w3.org/TR/2001/REC-SVG-20010904/DTD/svg10.dtd">
<svg version="1.0" xmlns="http://www.w3.org/2000/svg"
 width="512.000000pt" height="374.000000pt" viewBox="0 0 512.000000 374.000000"
 preserveAspectRatio="xMidYMid meet">

<g transform="translate(0.000000,374.000000) scale(0.100000,-0.100000)"
fill="#000000" stroke="none">
<path d="M2445 3384 c-362 -37 -675 -176 -925 -411 -241 -227 -391 -502 -457
-838 -24 -125 -24 -405 0 -530 111 -564 492 -1000 1027 -1175 166 -55 286 -73
470 -73 186 0 306 18 471 73 537 178 916 612 1026 1175 24 125 24 405 0 530
-65 333 -214 607 -454 835 -210 200 -502 347 -782 394 -96 16 -304 27 -376 20z
m425 -118 c192 -45 335 -107 496 -214 321 -216 546 -570 609 -957 19 -115 19
-335 0 -450 -54 -336 -241 -663 -498 -874 -189 -154 -385 -248 -628 -303 -88
-19 -132 -23 -289 -23 -205 0 -308 17 -479 77 -491 173 -853 607 -936 1123
-19 115 -19 335 0 450 30 184 109 392 208 546 206 321 540 550 913 628 139 29
149 30 334 26 131 -3 187 -9 270 -29z"/>
<path d="M1666 2708 c5 -7 160 -217 347 -466 186 -249 337 -459 334 -465 -3
-7 -158 -177 -346 -379 -187 -202 -341 -370 -341 -373 0 -3 33 -5 74 -5 l74 0
307 330 c168 181 309 330 313 330 4 -1 117 -149 252 -330 l245 -329 273 -1
272 0 -372 495 -371 496 40 42 c32 33 484 522 591 640 l26 27 -80 0 -79 -1
-279 -302 c-154 -166 -282 -303 -286 -305 -4 -1 -109 135 -234 303 l-228 305
-270 0 c-210 0 -268 -3 -262 -12z m1012 -824 c299 -399 546 -732 549 -740 4
-12 -15 -14 -116 -14 l-121 0 -550 735 c-303 405 -550 738 -550 740 0 3 55 5
123 5 l122 -1 543 -725z"/>
</g>
</svg>
